<svg xmlns="http://www.w3.org/2000/svg" xmlns:xlink="http://www.w3.org/1999/xlink" viewBox="0 0 1366 1024.5"><defs><style>.cls-1{fill:#fff;}.cls-2{font-size:24px;}.cls-2,.cls-3{font-family:ComicSansMS-Bold, Comic Sans MS;font-weight:700;}.cls-3{font-size:28px;}</style></defs><title>death scene</title><g id="bg"><image width="4032" height="3024" transform="scale(0.34)" xlink:href="backgroundimg.png"/><rect class="cls-1" x="430.5" y="125" width="672" height="112"/><path d="M1102-131V-20H431V-131h671m1-1H430V-19h673V-132Z" transform="translate(0 256.5)"/><text class="cls-2" transform="translate(470.39 172.85)">SOMEONE MURDERED JANNAH, WHO WAS IT? <tspan x="97.12" y="28.8">START THE INTERROGATION...</tspan></text></g><g id="hind"><image width="311" height="1030" transform="translate(708 411.5) scale(0.34)" xlink:href="hindshook.png"/></g><g id="eva"><image width="482" height="1160" transform="translate(872 437.5) scale(0.34)" xlink:href="evashook.png"/></g><g id="dania"><image width="518" height="1584" transform="translate(1115 392.5) scale(0.34 0.34)" xlink:href="daniashook.png"/></g><g id="reveal_button" data-name="reveal button"><rect class="cls-1" x="560.5" y="883" width="490" height="71"/><path d="M1050,627v70H561V627h489m1-1H560v72h491V626Z" transform="translate(0 256.5)"/><text class="cls-3" transform="translate(577.18 926.52)">WHAT ACTUALLY HAPPENED!!??</text></g></svg>